Coordinates
version=1
nRows=11
nColumns=40
inDegrees=yes

Units are S.I. units (second, meters, Newtons, ...)
Angles are in degrees.

endheader
time	pelvis_tilt	pelvis_list	pelvis_rotation	pelvis_tx	pelvis_ty	pelvis_tz	hip_flexion_r	hip_adduction_r	hip_rotation_r	knee_angle_r	knee_angle_r_beta	ankle_angle_r	subtalar_angle_r	mtp_angle_r	hip_flexion_l	hip_adduction_l	hip_rotation_l	knee_angle_l	knee_angle_l_beta	ankle_angle_l	subtalar_angle_l	mtp_angle_l	lumbar_extension	lumbar_bending	lumbar_rotation	arm_flex_r	arm_add_r	arm_rot_r	elbow_flex_r	pro_sup_r	wrist_flex_r	wrist_dev_r	arm_flex_l	arm_add_l	arm_rot_l	elbow_flex_l	pro_sup_l	wrist_flex_l	wrist_dev_l
      0.55000000	     -0.06984536	     -4.93388480	      5.51483153	     -0.55933315	      0.94112243	     -1.43622384	     21.44737650	      3.14187324	    -18.04825961	    -23.45615278	     -0.40938710	     -2.90774609	    -10.77628396	     -1.49239981	    -10.71263796	     14.30654573	     17.39527988	    -35.82416243	     -0.62524959	    -13.18486958	      2.42413651	     -9.98559084	     -2.45249741	      5.23097301	     -8.32292655	     -7.22762944	     -9.82195202	    -23.62086057	     11.76518412	     89.95437384	      0.00000000	      0.00000000	      5.77113551	     14.49302819	     13.58593848	     30.67041317	     89.95437384	      0.00000000	      0.00000000
      0.56000000	     -0.59200504	     -5.33687785	      5.42833392	     -0.54975168	      0.94119762	     -1.43362124	     21.45055380	      3.97216257	    -17.42207942	    -23.39267631	     -0.40827922	     -2.71022220	    -11.75952896	     -0.91194709	     -8.18147035	     14.94849197	     16.18117572	    -39.29240314	     -0.68578181	    -13.60286323	      4.90357805	     -9.66489166	     -1.86125820	      5.50663251	     -8.01651845	     -6.88562219	     -9.81260755	    -24.04632340	     11.61052503	     89.95437384	      0.00000000	      0.00000000	      5.05435557	     14.05780699	     13.61859286	     29.85094555	     89.95437384	      0.00000000	      0.00000000
      0.57000000	     -0.90562211	     -5.64823621	      5.43102855	     -0.54016246	      0.94156145	     -1.43161762	     21.18983499	      4.60192864	    -16.93516264	    -23.39372616	     -0.40829755	     -2.10520233	    -12.02176800	     -0.55377779	     -5.87756291	     15.48188229	     15.16949652	    -42.59234171	     -0.74337660	    -13.19824709	      7.48856149	     -9.41600217	     -1.50317311	      5.74648572	     -7.74369927	     -6.61830662	     -9.87132554	    -24.02448485	     11.69001137	     89.95437384	      0.00000000	      0.00000000	      4.32443498	     13.68957075	     13.29953305	     29.07997542	     89.95437384	      0.00000000	      0.00000000
      0.58000000	     -1.48982599	     -5.77502379	      5.46707604	     -0.53110657	      0.94153136	     -1.42994990	     21.32828716	      4.92486714	    -16.59161838	    -23.59978947	     -0.41189403	     -1.52976599	    -12.61497385	      0.08480702	     -3.10457792	     15.70978025	     14.12670497	    -45.95308479	     -0.80203263	    -12.13037356	      9.97929247	     -9.04379394	     -0.89726842	      5.76718196	     -7.50097623	     -6.23991553	     -9.90432419	    -24.28372747	     11.62933250	     89.95437384	      0.00000000	      0.00000000	      3.72615071	     13.28851797	     13.17147218	     28.08975574	     89.95437384	      0.00000000	      0.00000000
      0.59000000	     -1.81497428	     -5.91306415	      5.52372455	     -0.52210502	      0.94198917	     -1.42837108	     21.11427038	      5.26374271	    -16.30686811	    -23.74633724	     -0.41445177	      0.06283123	    -12.46213955	      5.49443696	     -0.63463514	     15.92904870	     13.31044167	    -49.12763767	     -0.85743903	     -9.68344753	     11.70648460	     -3.75445089	     -0.62033647	      5.82215172	     -7.20345078	     -5.80005586	     -9.89094072	    -25.12324194	     11.69924890	     89.95437384	      0.00000000	      0.00000000	      3.19117977	     12.89131134	     12.99848254	     27.10261264	     89.95437384	      0.00000000	      0.00000000
      0.60000000	     -1.45959633	     -5.50613211	      5.35456336	     -0.51247773	      0.94381593	     -1.42691393	     19.96064324	      5.04467502	    -16.29354025	    -23.66963520	     -0.41311307	      0.59286581	    -12.27247529	      5.31116060	      0.50997877	     15.65063255	     13.30256432	    -51.21761291	     -0.89391598	     -9.09687999	     12.17795460	     -3.80369964	     -1.18560327	      5.34813735	     -6.55733368	     -5.40084356	     -9.89611090	    -24.88945307	     11.90883328	     89.95437384	      0.00000000	      0.00000000	      2.63749980	     12.54966436	     12.87332216	     26.39373336	     89.95437384	      0.00000000	      0.00000000
      0.61000000	     -2.03854554	     -5.99126094	      5.93639698	     -0.50413781	      0.94386842	     -1.42627477	     19.91645403	      5.54321875	    -16.52385502	    -23.41309387	     -0.40863558	      1.22534324	    -12.12137520	      5.02028453	      3.64661195	     15.89997151	     11.61194642	    -54.07973810	     -0.94386949	     -6.92327268	     15.22440215	     -3.21316941	     -0.55173488	      5.77236858	     -6.78940218	     -5.00920875	    -10.00325439	    -24.91844127	     12.11846938	     89.95437384	      0.00000000	      0.00000000	      2.27104128	     12.14690502	     12.60387141	     24.99021868	     89.95437384	      0.00000000	      0.00000000
      0.62000000	     -2.19933302	     -5.69098068	      6.16620171	     -0.49555507	      0.94482171	     -1.42560622	     19.37946846	      5.24012332	    -16.76430619	    -23.32850242	     -0.40715918	      1.60834226	    -11.87644732	      3.64342949	      5.84915326	     15.28191184	     10.62674502	    -56.35884640	     -0.98364743	     -2.96704070	     15.79268195	      8.94199069	     -0.53977746	      5.36463605	     -6.58116032	     -4.51709089	     -9.96972422	    -25.38194545	     12.36932185	     89.95437384	      0.00000000	      0.00000000	      1.81976278	     11.86897614	     12.13633917	     23.95480260	     89.95437384	      0.00000000	      0.00000000
      0.63000000	     -1.95551715	     -5.34048447	      6.17171566	     -0.48663195	      0.94659052	     -1.42444609	     18.24851307	      5.06452471	    -16.88038739	    -22.96078902	     -0.40074137	      2.04181312	    -11.73443448	      3.53598424	      7.21589932	     14.87637201	     10.44983266	    -57.78216415	     -1.00848901	     -2.25070744	     16.19160618	      8.70091792	     -1.02703661	      4.91886300	     -6.08083824	     -3.93201440	     -9.99130337	    -25.14164425	     12.54005786	     89.95437384	      0.00000000	      0.00000000	      1.31954506	     11.65661069	     11.89400849	     23.18982731	     89.95437384	      0.00000000	      0.00000000
      0.64000000	     -2.17121564	     -5.42003660	      6.74472084	     -0.47842645	      0.94750302	     -1.42433342	     17.61979457	      5.09291007	    -17.59965942	    -22.44413616	     -0.39172407	      2.55333115	    -11.11088829	      3.26054784	      9.54513000	     14.45879173	      9.02518028	    -59.36457585	     -1.03610731	     -0.60780560	     17.01619188	      8.78421788	     -0.88921649	      4.93862855	     -6.24868463	     -3.41199986	    -10.09560543	    -24.97679170	     12.89327379	     89.95437384	      0.00000000	      0.00000000	      0.99250049	     11.38263680	     11.44600896	     21.89662607	     89.95437384	      0.00000000	      0.00000000
      0.65000000	     -2.07526361	     -5.11454451	      6.87583264	     -0.46989271	      0.94911617	     -1.42360921	     16.58050157	      4.93055449	    -17.80423274	    -21.91882299	     -0.38255563	      2.99905899	    -10.79586950	      3.10601369	     11.06411904	     13.79870072	      8.48600735	    -60.29076358	     -1.05227233	      0.39410011	     17.30187458	      8.65868279	     -1.19905769	      4.55026695	     -5.91068667	     -2.78828100	    -10.15770281	    -24.80367255	     13.14566522	     89.95437384	      0.00000000	      0.00000000	      0.58445921	     11.18003517	     11.09236773	     20.91837470	     89.95437384	      0.00000000	      0.00000000
